<?xml version="1.0" encoding="UTF-8" standalone="no"?>
<!-- Created with Inkscape (http://www.inkscape.org/) -->

<svg
   xmlns:dc="http://purl.org/dc/elements/1.1/"
   xmlns:cc="http://creativecommons.org/ns#"
   xmlns:rdf="http://www.w3.org/1999/02/22-rdf-syntax-ns#"
   xmlns:svg="http://www.w3.org/2000/svg"
   xmlns="http://www.w3.org/2000/svg"
   xmlns:sodipodi="http://sodipodi.sourceforge.net/DTD/sodipodi-0.dtd"
   xmlns:inkscape="http://www.inkscape.org/namespaces/inkscape"
   id="svg2"
   version="1.1"
   inkscape:version="0.91 r13725"
   width="311"
   height="314"
   viewBox="0 0 311 314"
   sodipodi:docname="explorer.svg"
   inkscape:export-filename="/Users/pierce/PhD/gold-miners/experiment/goldminers/img/explorer-traced.png"
   inkscape:export-xdpi="0.6671375"
   inkscape:export-ydpi="0.6671375">
  <metadata
     id="metadata8">
    <rdf:RDF>
      <cc:Work
         rdf:about="">
        <dc:format>image/svg+xml</dc:format>
        <dc:type
           rdf:resource="http://purl.org/dc/dcmitype/StillImage" />
        <dc:title></dc:title>
      </cc:Work>
    </rdf:RDF>
  </metadata>
  <defs
     id="defs6" />
  <sodipodi:namedview
     pagecolor="#ffffff"
     bordercolor="#666666"
     borderopacity="1"
     objecttolerance="10"
     gridtolerance="10"
     guidetolerance="10"
     inkscape:pageopacity="0"
     inkscape:pageshadow="2"
     inkscape:window-width="1133"
     inkscape:window-height="671"
     id="namedview4"
     showgrid="false"
     inkscape:zoom="0.78666667"
     inkscape:cx="-78.372881"
     inkscape:cy="150"
     inkscape:window-x="0"
     inkscape:window-y="0"
     inkscape:window-maximized="0"
     inkscape:current-layer="svg2" />
  <path
     style="fill:#000000"
     d="m 173.93338,302.98645 c -4.72683,-2.21086 -14.67523,-9.30391 -16.73633,-11.93271 -0.67,-0.85456 -1.2325,-2.87179 -1.25,-4.48274 -0.0175,-1.61095 -0.56416,-4.40122 -1.21482,-6.2006 -0.88554,-2.4489 -0.89963,-3.89359 -0.056,-5.74506 0.91418,-2.0064 0.8244,-2.72384 -0.47546,-3.7994 -2.00395,-1.65818 -5.24234,-8.65883 -5.23919,-11.32594 0.002,-1.29907 0.94679,-0.30282 2.69715,2.84266 1.48213,2.66346 2.83689,4.41636 3.01056,3.89534 0.17368,-0.52103 1.42766,-0.73477 2.78663,-0.47498 1.35898,0.25978 3.06144,-0.0178 3.78327,-0.61687 1.91278,-1.58747 5.6761,1.33678 5.6761,4.41055 0,1.74122 -0.55075,2.4433 -1.91667,2.4433 -1.05416,0 -2.09734,0.54203 -2.31817,1.20451 -0.59322,1.77968 3.49369,7.75425 5.23484,7.65268 3.22285,-0.188 3.86304,0.24275 4.47036,3.00785 0.6235,2.83879 0.66316,2.85293 4.32945,1.54389 2.03511,-0.72663 4.46451,-1.3409 5.39867,-1.36504 0.93416,-0.0241 2.93877,-1.19336 4.45469,-2.59826 l 2.75621,-2.55437 1.75695,2.30437 c 7.21471,9.46263 8.60181,17.4196 3.67512,21.08201 -4.09909,3.04717 -15.02851,3.41921 -20.82332,0.70881 z m 1.89854,-3.351 c -0.22917,-0.2005 -1.54167,-0.90032 -2.91667,-1.55516 -2.35727,-1.12265 -2.38918,-1.10183 -0.55887,0.36454 1.593,1.27626 4.84786,2.39128 3.47554,1.19062 z M 194.04281,298.25 c 1.26951,-1.61876 1.22245,-1.63998 -0.62756,-0.28297 -1.1,0.80687 -2.1875,1.59437 -2.41667,1.75 -0.22916,0.15563 0.0532,0.28297 0.62756,0.28297 0.57432,0 1.66182,-0.7875 2.41667,-1.75 z m -5.44793,-0.76061 c 6.59613,-2.75604 7.148,-5.7458 2.27679,-12.33447 l -2.0821,-2.81619 -7.70495,3.69837 c -4.23772,2.03411 -8.31454,4.43289 -9.0596,5.33064 -1.81084,2.18192 -4.29882,2.05799 -7.38264,-0.36774 -2.49145,-1.95978 -5.31027,-2.75256 -4.36841,-1.2286 0.26221,0.42427 2.65127,2.3179 5.30902,4.20806 2.65774,1.89017 4.21466,2.66804 3.45982,1.7286 -1.6941,-2.10836 -0.30605,-2.2218 2.56656,-0.20976 2.08564,1.46084 8.00933,3.19953 11.588,3.40125 0.98016,0.0553 3.40905,-0.57932 5.39751,-1.41016 z m -22.36383,-10.61803 c -1.3697,-1.36971 -2.30393,-1.69958 -2.75346,-0.97223 -0.38621,0.6249 0.007,1.10087 0.91003,1.10087 0.87472,0 1.85687,0.69441 2.18255,1.54313 0.32569,0.84872 0.84906,1.28622 1.16306,0.97222 0.314,-0.314 -0.36198,-1.5038 -1.50218,-2.64399 z m -3.75693,-5.42653 c 1.91007,-1.53028 1.90913,-1.54044 -0.0589,-0.63512 -1.1,0.50602 -2.675,1.17032 -3.5,1.47622 -1.29574,0.48044 -1.28773,0.56693 0.0589,0.63512 0.85738,0.0434 2.43238,-0.62087 3.5,-1.47622 z m -2.87576,-10.63233 c -0.31922,-0.79773 -0.55618,-0.56078 -0.60416,0.60417 -0.0434,1.05416 0.19292,1.64479 0.52522,1.3125 0.33229,-0.33229 0.36781,-1.1948 0.0789,-1.91667 z m -62.183107,30.85456 c -4.70827,-2.13616 -5.99163,-5.44925 -4.5074,-11.63621 1.97337,-8.22593 7.403417,-13.23483 10.735427,-9.90282 0.62042,0.62042 2.93999,1.93927 5.15459,2.93078 3.92705,1.75819 4.04168,1.75506 4.639,-0.12694 0.41073,-1.29409 1.87928,-2.13225 4.45858,-2.54469 2.78996,-0.44614 4.00352,-1.2016 4.41931,-2.7511 0.79408,-2.95931 0.73788,-4.65777 -0.14951,-4.51766 -4.15048,0.65534 -5.55373,-1.9532 -2.95935,-5.50124 1.07268,-1.46696 1.71081,-1.57364 3.77835,-0.6316 3.42307,1.55965 7.66658,-0.18328 9.05132,-3.71765 0.59646,-1.52236 1.2312,-5.18063 1.41054,-8.12949 0.43201,-7.10355 2.34855,-18.99856 3.57829,-22.20873 0.54153,-1.41365 1.12285,-7.03865 1.2918,-12.5 0.46002,-14.86984 3.39649,-34.65897 5.3692,-36.18346 0.89229,-0.68956 1.92802,-0.91456 2.30162,-0.5 0.91137,1.01132 -0.8663,26.98773 -2.09772,30.65297 -0.53573,1.59458 -0.9807,6.54458 -0.98883,11 -0.008,4.45543 -0.64329,10.80078 -1.41147,14.10078 -0.76819,3.3 -1.70311,9.15 -2.07761,13 -0.3745,3.85 -1.38457,10.6 -2.24461,15 -0.86003,4.4 -1.60596,11.21725 -1.65761,15.14944 -0.11071,8.42741 -0.35557,8.7056 -13.63663,15.49327 -6.9817,3.5682 -9.58395,4.3691 -14.95489,4.60267 -3.94075,0.17138 -7.684257,-0.25343 -9.502397,-1.07832 z m 10.229167,-2.27123 c -0.3323,-0.33229 -1.1948,-0.36781 -1.91667,-0.0789 -0.79773,0.31922 -0.56078,0.55618 0.60417,0.60416 1.05416,0.0434 1.64479,-0.19293 1.3125,-0.52522 z m -10.856717,-3.08306 c -1.20088,-1.47631 -1.1552,-1.60583 0.36537,-1.03606 0.9558,0.35815 3.880797,0.89335 6.499997,1.18935 3.89268,0.43991 5.85768,0.0129 10.76218,-2.33862 5.06106,-2.4266 5.68702,-2.99843 4,-3.65411 -1.1,-0.42753 -2.675,-1.33145 -3.5,-2.00871 -2.40233,-1.97212 -13.78581,-5.76079 -15.422207,-5.13285 -2.26356,0.86861 -5.075,11.3642 -3.53966,13.21417 0.66372,0.79973 1.43176,1.45406 1.70676,1.45406 0.275,0 -0.1176,-0.75925 -0.87244,-1.68723 z m 23.620467,-1.30132 c 0.35034,-0.56686 -0.0511,-0.7345 -0.94098,-0.39301 -1.73242,0.66479 -2.04939,1.38156 -0.61096,1.38156 0.51754,0 1.21592,-0.44485 1.55194,-0.98855 z M 128.91525,289.5 c 2.99676,-2.21094 3.13484,-2.5 1.19428,-2.5 -1.20685,0 -2.08178,0.41824 -1.94428,0.92942 0.1375,0.51118 -0.65,1.62187 -1.75,2.46819 -3.34708,2.57521 -1.12646,1.77791 2.5,-0.89761 z m -5.625,-2.29775 c 0.27117,-0.43876 0.0727,-1.45126 -0.44098,-2.25 -0.81659,-1.26967 -1.05145,-1.26967 -1.86804,0 -0.99169,1.54193 -0.53021,3.04775 0.93402,3.04775 0.48508,0 1.10383,-0.35899 1.375,-0.79775 z m -4.95845,-1.84538 c 0.34679,-0.90372 0.40581,-1.86784 0.13115,-2.1425 -0.63835,-0.63835 -3.5477,1.74646 -3.5477,2.90807 0,1.55305 2.76452,0.93359 3.41655,-0.76557 z m 13.51316,-2.66589 c -0.0678,-2.11236 -0.10112,-2.11922 -0.92971,-0.19098 -1.18278,2.75248 -1.18278,3.731 0,3 0.55,-0.33992 0.96837,-1.60398 0.92971,-2.80902 z m -1.12284,-7.21744 c -0.30789,-0.30789 -0.86705,0.24711 -1.24258,1.23333 -0.54268,1.4252 -0.42782,1.54006 0.5598,0.5598 0.68342,-0.67834 0.99067,-1.48524 0.68278,-1.79313 z m -2.0777,-2.07771 c -0.3323,-0.33229 -1.1948,-0.36781 -1.91667,-0.0789 -0.79773,0.31922 -0.56078,0.55618 0.60417,0.60416 1.05416,0.0434 1.64479,-0.19293 1.3125,-0.52522 z m 3.95394,-3.58333 c -0.31922,-0.79773 -0.55618,-0.56078 -0.60416,0.60417 -0.0434,1.05416 0.19292,1.64479 0.52522,1.3125 0.33229,-0.33229 0.36781,-1.1948 0.0789,-1.91667 z m 3,-10 c -0.31922,-0.79773 -0.55618,-0.56078 -0.60416,0.60417 -0.0434,1.05416 0.19292,1.64479 0.52522,1.3125 0.33229,-0.3323 0.36781,-1.1948 0.0789,-1.91667 z m 0.97917,-9.0625 c -0.27741,-0.6875 -0.50439,-0.125 -0.50439,1.25 0,1.375 0.22698,1.9375 0.50439,1.25 0.27741,-0.6875 0.27741,-1.8125 0,-2.5 z m 1.02083,-6.9375 c -0.31922,-0.79773 -0.55618,-0.56078 -0.60416,0.60417 -0.0434,1.05416 0.19292,1.64479 0.52522,1.3125 0.33229,-0.3323 0.36781,-1.1948 0.0789,-1.91667 z m 3.00622,-21.5625 c -0.25153,-0.9625 -0.45733,-0.175 -0.45733,1.75 0,1.925 0.2058,2.7125 0.45733,1.75 0.25152,-0.9625 0.25152,-2.5375 0,-3.5 z m 3.00366,-25.98097 c -0.25354,-0.97297 -0.47766,-0.41903 -0.49804,1.23097 -0.0204,1.65 0.18706,2.44606 0.46099,1.76903 0.27392,-0.67703 0.29059,-2.02703 0.0371,-3 z m 0.99012,-9.45653 c -0.31922,-0.79773 -0.55618,-0.56078 -0.60416,0.60417 -0.0434,1.05416 0.19292,1.64479 0.52522,1.3125 0.33229,-0.3323 0.36781,-1.1948 0.0789,-1.91667 z M 176.91525,281 c 0,-0.55 0.47656,-1 1.05902,-1 0.58246,0 0.7809,0.45 0.44098,1 -0.33992,0.55 -0.81648,1 -1.05902,1 -0.24254,0 -0.44098,-0.45 -0.44098,-1 z m -68,-1 c 0,-0.55 0.5625,-0.8875 1.25,-0.75 0.69847,0.13969 1.12035,-0.52214 0.95616,-1.5 -0.17426,-1.03786 0.33441,-1.75 1.25,-1.75 1.8715,0 1.91482,0.92751 0.15179,3.25 -1.44525,1.90388 -3.60795,2.35345 -3.60795,0.75 z m -3.87361,-2.30166 c 1.32518,-1.00876 1.48066,-2.16039 0.83951,-6.2182 -0.69881,-4.42269 -0.54673,-5.16837 1.35866,-6.66175 1.18006,-0.92488 2.37657,-1.45059 2.65893,-1.16824 0.28235,0.28236 -0.32987,1.12996 -1.36049,1.88357 -1.88488,1.37825 -1.57544,5.17295 0.32601,3.9978 1.13024,-0.69854 4.62709,4.22571 3.67612,5.17669 -0.35519,0.35518 -1.33735,-0.22136 -2.18258,-1.28121 -1.44943,-1.81746 -1.50279,-1.74964 -0.93876,1.19305 0.51006,2.66107 0.25956,3.21072 -1.70288,3.73635 -3.51839,0.94239 -4.46954,0.70836 -2.67452,-0.65806 z M 176.91525,275.5 c 0,-2.02054 0.4947,-2.5 2.57946,-2.5 2.35978,0 2.53117,-0.27677 2.01249,-3.25 l -0.56696,-3.25 1.4424,3 c 1.68144,3.49716 2.0769,1.06179 0.50076,-3.08378 -0.84503,-2.22259 -0.79076,-2.51389 0.29973,-1.60886 1.6326,1.35494 4.14149,10.72125 3.25573,12.15445 -0.35291,0.571 -2.64009,1.03819 -5.08263,1.03819 -4.07038,0 -4.44098,-0.20863 -4.44098,-2.5 z m -4.33333,-7.16667 c -1.10027,-1.10026 -0.7532,-4.8468 0.57172,-6.17172 1.25871,-1.25871 1.34033,-1.58211 1.6093,-6.37681 0.0838,-1.49337 1.53356,-4.28837 3.22176,-6.21111 1.68819,-1.92275 2.94946,-4.30091 2.80282,-5.2848 -0.14664,-0.98389 0.33038,-4.2072 1.06005,-7.16291 0.80604,-3.26508 1.08979,-7.64034 0.72306,-11.14904 -0.46254,-4.42537 -0.2591,-6.06093 0.8705,-6.99842 0.95924,-0.7961 1.47412,-3.07311 1.47412,-6.51918 0,-6.43474 0.69035,-8.45934 2.88448,-8.45934 2.81139,0 6.11552,-2.97033 6.11552,-5.49769 0,-2.8616 1.87752,-4.30495 3.09649,-2.38043 0.48009,0.75797 0.87978,3.4901 0.8882,6.07142 0.0122,3.72667 -0.44243,5.01391 -2.2072,6.25 -1.22237,0.85618 -3.02237,1.5567 -4,1.5567 -1.49041,0 -1.77749,0.89891 -1.77749,5.56574 0,3.06116 -0.52393,6.54472 -1.16429,7.74125 -0.64037,1.19652 -1.08542,4.65444 -0.989,7.68425 0.27993,8.7973 -2.18941,20.28044 -5.21379,24.24561 -1.44811,1.89856 -2.63292,3.82988 -2.63292,4.29182 0,0.46193 -0.94014,2.78196 -2.08921,5.15561 -1.95211,4.03253 -3.66722,5.22596 -5.24412,3.64905 z M 182.04281,250.25 c 1.24387,-1.58606 1.2085,-1.62143 -0.37756,-0.37756 -0.9625,0.75485 -1.75,1.54235 -1.75,1.75 0,0.82304 0.82119,0.29331 2.12756,-1.37244 z m 3.5797,-21.48834 c -0.23919,-1.24391 -0.44398,-0.46166 -0.45508,1.73834 -0.0111,2.2 0.18461,3.21775 0.4349,2.26166 0.25029,-0.95609 0.25937,-2.75609 0.0202,-4 z M 187.62098,211.75 c -0.23835,-1.2375 -0.43337,-0.225 -0.43337,2.25 0,2.475 0.19502,3.4875 0.43337,2.25 0.23836,-1.2375 0.23836,-3.2625 0,-4.5 z m -78.1011,45.41929 c -0.28237,-0.45689 -1.2367,-2.9611 -2.12071,-5.56491 -1.86468,-5.49228 -1.49674,-8.62153 0.41465,-3.52652 1.11945,2.98403 2.71703,6.73869 3.90268,9.17214 0.50141,1.02911 -1.55747,0.95346 -2.19662,-0.0807 z M 148.07314,255 c 0,-1.375 0.22698,-1.9375 0.50439,-1.25 0.27741,0.6875 0.27741,1.8125 0,2.5 -0.27741,0.6875 -0.50439,0.125 -0.50439,-1.25 z m -42.46753,-12.75 c -1.04824,-1.83825 -1.79743,-8.70143 -0.84599,-7.75 1.11079,1.11079 2.69811,8.5 1.82594,8.5 -0.30375,0 -0.74473,-0.3375 -0.97995,-0.75 z m -0.0562,-10.88266 c -2.63151,-1.42564 -2.80139,-1.85159 -2.07785,-5.20996 0.43339,-2.01156 0.7418,-5.79488 0.68537,-8.40738 -0.0564,-2.6125 0.26503,-4.75 0.71435,-4.75 1.32071,0 1.80437,5.90024 0.88642,10.81375 -0.7423,3.97336 -0.57413,4.84299 1.32811,6.86784 2.53683,2.70033 2.34237,2.78712 -1.5364,0.68575 z m 40.44476,-19.95067 c 0.048,-1.16495 0.28494,-1.4019 0.60416,-0.60417 0.28887,0.72187 0.25335,1.58437 -0.0789,1.91667 -0.3323,0.33229 -0.56864,-0.25834 -0.52522,-1.3125 z m -41,-2.59858 c -0.0525,-1.78382 -1.08423,-3.39772 -3.08098,-4.81954 -3.723917,-2.65166 -5.299287,-5.47383 -4.485977,-8.03632 0.72947,-2.29835 2.48801,-2.63454 2.48801,-0.47565 0,0.81762 1.524677,2.12363 3.388177,2.90225 3.30429,1.38062 3.37652,1.5357 2.91722,6.26342 -0.57522,5.92094 -1.12029,7.77234 -1.22645,4.16584 z M 104.71525,195.8 c 0.66,-0.66 1.2,-2.085 1.2,-3.16667 0,-1.08166 0.27904,-1.68762 0.6201,-1.34657 0.98614,0.98614 -0.53556,5.71324 -1.83915,5.71324 -0.89735,0 -0.89277,-0.28818 0.019,-1.2 z m 23.38816,-1.53852 c 0.50201,-2.60673 3.81184,-2.89745 3.81184,-0.3348 0,1.43109 -0.64223,2.07332 -2.07332,2.07332 -1.4311,0 -1.96962,-0.53852 -1.73852,-1.73852 z m -24.10921,-2.84481 c 0.048,-1.16495 0.28494,-1.4019 0.60416,-0.60417 0.28887,0.72187 0.25335,1.58437 -0.0789,1.91667 -0.3323,0.33229 -0.56864,-0.25834 -0.52522,-1.3125 z M 109.94588,186.5 c 0,-0.55 0.43621,-1.675 0.96937,-2.5 0.53316,-0.825 0.96937,-1.05 0.96937,-0.5 0,0.55 -0.43621,1.675 -0.96937,2.5 -0.53316,0.825 -0.96937,1.05 -0.96937,0.5 z m -13.100167,-4.18179 c -5.64781,-5.10245 -7.70195,-9.66906 -8.5107,-18.92037 -0.37974,-4.34381 -1.30454,-9.11299 -2.0551,-10.59818 C 84.762493,149.79705 84.489743,147 85.714363,147 c 1.16945,0 3.50535,6.99639 3.41358,10.22421 -0.0434,1.52669 0.004,2.76901 0.10419,2.76073 0.10071,-0.008 1.98312,-0.66353 4.18312,-1.4561 4.93039,-1.77624 10.698397,-1.93044 12.299997,-0.32884 1.77207,1.77207 1.4646,0.23899 -0.86976,-4.33674 -2.59914,-5.09473 -1.89776,-6.16826 0.91514,-1.40074 1.15133,1.95135 2.05572,5.00807 2.00976,6.7927 -0.046,1.78463 0.43642,4.56046 1.07195,6.1685 1.17936,2.98409 0.67922,7.49312 -1.22859,11.07628 -0.58568,1.1 -0.94803,3.6875 -0.80522,5.75 0.24763,3.57627 0.11727,3.75 -2.81393,3.75 -2.13699,0 -4.315427,-1.12193 -7.148887,-3.68179 z m 8.034097,-0.0682 c -0.0195,-0.4125 -0.62608,-1.8153 -1.34798,-3.11734 -1.09644,-1.97757 -1.41473,-2.10105 -1.93318,-0.75 -0.34135,0.88954 -1.11131,1.61734 -1.711027,1.61734 -0.59972,0 -0.83797,-0.40844 -0.52945,-0.90765 0.30853,-0.4992 0.0997,-1.9617 -0.46398,-3.25 -0.95576,-2.18425 -0.98693,-2.15107 -0.46186,0.49144 0.41899,2.10862 0.23295,2.66588 -0.727,2.17766 -0.70954,-0.36086 0.0599,0.4992 1.70992,1.91125 2.903897,2.48513 5.537247,3.36569 5.464557,1.8273 z m -0.91661,-7.52721 c 1.46377,0.38278 1.95205,0.001 1.95205,-1.52437 0,-1.11917 0.31232,-2.85915 0.69405,-3.86663 0.65008,-1.71576 0.58673,-1.72546 -1,-0.15322 -0.93173,0.92322 -1.69405,2.16072 -1.69405,2.75 0,0.58929 -0.525,1.07143 -1.16667,1.07143 -0.64166,0 -0.8825,-0.28417 -0.53518,-0.63148 0.34732,-0.34732 0.2118,-1.41568 -0.30116,-2.37414 -0.68667,-1.28306 -0.41366,-2.21231 1.03519,-3.5235 1.0823,-0.97947 1.96782,-1.41111 1.96782,-0.9592 0,0.45191 0.23559,0.58606 0.52354,0.29811 1.03819,-1.03819 -0.72195,-3.67088 -2.10056,-3.14186 -0.77632,0.2979 -1.20295,0.87907 -0.94806,1.29149 0.25489,0.41243 -0.62471,1.77212 -1.95467,3.02156 -1.673267,1.57195 -3.211267,2.12008 -4.993047,1.77947 -3.57487,-0.68338 -4.24555,1.01594 -0.90259,2.28693 2.2056,0.83856 2.91721,0.73582 3.62163,-0.52291 1.28832,-2.30209 2.742217,-0.87291 2.832707,2.78455 0.0434,1.75504 0.28999,2.67625 0.54794,2.04714 0.25795,-0.62911 1.34743,-0.91413 2.42106,-0.63337 z m -6.452937,-8.95556 c 1.32604,-1.5542 1.40222,-1.84503 0.25064,-0.95694 -0.98103,0.75657 -2.71077,1.01068 -4.25,0.62436 -3.18677,-0.79983 -3.43303,0.29321 -0.34565,1.53419 1.2375,0.49741 2.29276,0.93291 2.34501,0.96777 0.0523,0.0349 0.95226,-0.94136 2,-2.16938 z m -0.59501,-2.70963 c 0,-0.45339 -0.89219,-1.05766 -1.98265,-1.34282 -1.69513,-0.44329 -1.83288,-0.23861 -0.94983,1.41137 0.96717,1.80717 2.93248,1.76123 2.93248,-0.0686 z m 5.761657,-2.74469 c -0.95609,-0.25029 -2.756087,-0.25937 -3.999997,-0.0202 -1.24391,0.23919 -0.46166,0.44398 1.738337,0.45508 2.2,0.0111 3.21775,-0.18461 2.26166,-0.4349 z m 77.05397,22.92138 C 175.49559,178.65424 168.14675,162 170.36104,162 c 0.33259,0 2.15781,3.40807 4.05605,7.57348 1.89824,4.16542 3.88079,7.30808 4.40566,6.98369 0.52486,-0.32439 1.27993,-0.0629 1.67791,0.58103 0.45192,0.73122 0.29014,0.90292 -0.4309,0.45729 -0.63498,-0.39244 -1.15451,-0.26352 -1.15451,0.28648 0,0.55 0.41157,1.25436 0.91459,1.56524 1.43632,0.8877 1.83874,-1.64046 0.72907,-4.58031 -0.71733,-1.90041 -0.62671,-4.26909 0.31321,-8.1871 0.99413,-4.144 1.0589,-6.58913 0.26084,-9.84642 -0.58394,-2.38336 -1.57921,-7.93338 -2.21172,-12.33338 -0.63251,-4.4 -1.79261,-10.21918 -2.578,-12.9315 -1.68093,-5.80503 -1.65603,-5.5685 -0.58628,-5.5685 0.46294,0 1.41921,1.9125 2.12503,4.25 1.25106,4.14315 1.30891,4.18715 2.30115,1.75 1.02355,-2.51406 1.53209,0.031 4.18028,20.92097 0.8512,6.71466 -0.78603,3.84359 -2.13537,-3.74461 l -1.1872,-6.67636 0.49661,6 c 0.65625,7.92872 1.14361,9.36781 3.17434,9.37327 0.9369,0.003 4.44159,0.31282 7.78821,0.68956 l 6.08476,0.68498 2.2626,-7.3739 c 1.24443,-4.05565 2.71213,-8.58425 3.26156,-10.06355 0.54943,-1.47931 0.74007,-3.10854 0.42364,-3.62053 -0.90363,-1.46211 2.22982,-12.39798 4.41237,-15.39934 1.08367,-1.49023 1.97031,-3.85273 1.97031,-5.25 0,-1.39727 0.45,-2.54049 1,-2.54049 0.55,0 1,-0.46973 1,-1.04384 0,-0.57411 -0.7875,-0.91161 -1.75,-0.75 -2.34302,0.39341 -2.99,-6.31157 -0.89732,-9.2993 l 1.47285,-2.10278 1.76837,2.69889 c 1.38298,2.11069 1.54991,3.27767 0.76596,5.3546 -0.71711,1.89985 -0.63919,3.50767 0.27376,5.64907 1.57674,3.69836 1.74224,10.14303 0.28362,11.04451 -1.80916,1.11812 -4.91724,9.39446 -4.91724,13.09386 0,3.84496 -2.01652,11.19409 -5.17362,18.85499 -1.13328,2.75 -2.41339,7.32099 -2.84468,10.15777 -0.43128,2.83677 -1.3911,6.41728 -2.13293,7.95668 -1.8074,3.75066 -8.4069,8.06422 -13.42672,8.77596 -3.54846,0.50313 -4.40624,0.22318 -6.60642,-2.15611 z m 8.12727,-7.57904 c 1.3436,-3.59417 2.85431,-6.28059 3.35714,-5.96983 0.52295,0.32321 0.6191,-0.45153 0.22465,-1.8102 -0.64144,-2.20939 -0.52114,-2.17234 1.72298,0.5306 l 2.41257,2.90583 -0.29064,-3.69045 c -0.17109,-2.17248 0.10445,-3.44627 0.66988,-3.09681 0.52829,0.3265 0.96052,-0.10792 0.96052,-0.96538 0,-0.85746 -0.3375,-1.59652 -0.75,-1.64235 -0.4125,-0.0458 -1.7625,-0.19563 -3,-0.33288 -1.2375,-0.13726 -2.25689,0.23774 -2.26531,0.83333 -0.01,0.70563 -0.27361,0.67689 -0.75672,-0.0825 -0.55833,-0.87762 -1.33805,-0.84607 -3.15761,0.12773 l -2.4162,1.29311 2.17292,0.68966 c 2.61511,0.83 2.87576,4.29507 0.64724,8.60454 -1.83099,3.54074 -2.73311,3.82962 -1.92679,0.61701 0.41304,-1.64572 0.15574,-2.33334 -0.87311,-2.33334 -1.14233,0 -1.38937,1.21108 -1.13894,5.58334 0.38519,6.72499 0.29636,6.30539 1.21452,5.7374 0.4125,-0.25518 1.84931,-3.40465 3.1929,-6.99881 z m 5.3677,1.54243 c 2.08529,-2.17657 2.41735,-3.06974 1.48709,-4 -1.79805,-1.79805 -3.0341,-1.44061 -1.90987,0.55231 0.77512,1.37404 0.40983,2.22565 -1.70031,3.96404 -1.47813,1.21772 -2.2092,2.23022 -1.6246,2.25 0.5846,0.0198 2.27106,-1.22508 3.74769,-2.76635 z M 180.59836,137.8125 c -0.31922,-0.79773 -0.55618,-0.56078 -0.60416,0.60417 -0.0434,1.05416 0.19292,1.64479 0.52522,1.3125 0.33229,-0.3323 0.36781,-1.1948 0.0789,-1.91667 z M 107.94588,181 c 0,-0.825 0.43621,-2.175 0.96937,-3 0.86167,-1.33333 0.96937,-1.33333 0.96937,0 0,0.825 -0.43621,2.175 -0.96937,3 -0.86167,1.33333 -0.96937,1.33333 -0.96937,0 z m 2.78187,-6.68311 c 0.72187,-0.28887 1.58437,-0.25335 1.91667,0.0789 0.33229,0.33229 -0.25834,0.56864 -1.3125,0.52522 -1.16495,-0.048 -1.4019,-0.28494 -0.60417,-0.60416 z m 62.89,-9.81457 c -1.63609,-3.43091 -1.63008,-3.47404 0.31479,-2.25945 1.09049,0.68102 1.98271,2.25498 1.98271,3.49768 0,3.04672 -0.34207,2.86236 -2.2975,-1.23823 z m -63.09337,1.67426 c -0.34513,-0.55844 0.14403,-1.78689 1.08704,-2.72989 1.22788,-1.22788 1.83112,-1.36481 2.12526,-0.4824 0.5466,1.6398 -2.37716,4.56356 -3.2123,3.21229 z m 26.64087,-5.88491 C 135.43521,159.65732 135.58939,157 137.35623,157 c 1.81892,0 3.06412,1.91918 1.92189,2.96213 -0.47458,0.43333 -1.42537,0.58162 -2.11287,0.32954 z m -26.80385,-4.3788 c -0.36954,-0.59793 -0.17109,-1.58793 0.44098,-2.2 0.61208,-0.61208 1.10598,-1.58537 1.09756,-2.16287 -0.008,-0.5775 -0.43396,-0.38803 -0.94563,0.42104 -1.10825,1.75239 -2.31578,0.9133 -1.55121,-1.07791 0.77364,-2.01484 8.12239,-1.91276 7.69392,0.10687 -0.95835,4.51729 -5.10903,7.54474 -6.73562,4.91287 z m 12.91197,-3.60609 c -0.83648,-0.29402 -0.85847,-1.32482 -0.0822,-3.85407 1.15723,-3.77061 2.31841,-4.21268 5.28297,-2.01128 1.50475,1.11739 1.70555,1.82624 0.89322,3.15317 -1.16997,1.91113 -4.34843,3.32573 -6.09397,2.71218 z m 29.64188,-3.69979 c 0,-1.50843 2.42909,-2.84457 3.40223,-1.87142 1.31691,1.3169 0.48035,3.26443 -1.40223,3.26443 -1.1,0 -2,-0.62686 -2,-1.39301 z m -46.8,-2.80699 c -1.59244,-1.59244 -1.49767,-4.17585 0.39623,-10.8 0.86487,-3.025 2.24021,-8.2 3.05631,-11.5 1.79183,-7.24543 3.75911,-9.9002 2.96415,-4 -0.29641,2.2 -0.28775,3.1 0.0192,2 1.21933,-4.36889 1.89937,-3.16157 1.27554,2.26456 C 112.44763,135.76013 109.62608,147 107.99393,147 c -0.37327,0 -1.21868,-0.54 -1.87868,-1.2 z m 2.48311,-6.9875 c -0.31922,-0.79773 -0.55618,-0.56078 -0.60416,0.60417 -0.0434,1.05416 0.19292,1.64479 0.52522,1.3125 0.33229,-0.3323 0.36781,-1.1948 0.0789,-1.91667 z m 3,-13 c -0.31922,-0.79773 -0.55618,-0.56078 -0.60416,0.60417 -0.0434,1.05416 0.19292,1.64479 0.52522,1.3125 0.33229,-0.3323 0.36781,-1.1948 0.0789,-1.91667 z m -28.499777,18.97083 c -0.65083,-0.65083 -1.16532,-2.10583 -1.14329,-3.23333 0.0341,-1.7433 0.27017,-1.62534 1.57825,0.78841 1.67239,3.08598 1.45093,4.33081 -0.43496,2.44492 z m 67.976747,-0.0233 c -1.78534,-1.78534 -1.38587,-2.768 1.08992,-2.68113 1.29597,0.0455 1.672,0.3088 0.88685,0.62105 -1.04316,0.41484 -1.07678,0.71909 -0.14324,1.29605 0.70801,0.43758 0.82267,0.99946 0.27323,1.33903 -0.52067,0.3218 -1.46871,0.0631 -2.10676,-0.575 z m -12.9834,-1.42721 c 0.48655,-2.50872 2.82332,-2.8532 2.82332,-0.41615 0,1.22833 -0.64569,2.08333 -1.57332,2.08333 -0.93124,0 -1.44138,-0.68037 -1.25,-1.66713 z m 15.04583,-2.88957 C 148.49926,137.19437 152.02936,128 157.91525,128 c 1.89306,0 3.55308,0.88767 4.92742,2.63486 2.71455,3.451 2.63205,6.20193 -0.21852,7.28572 -1.2601,0.47909 -2.8902,1.59295 -3.62244,2.47524 -1.66914,2.0112 -3.04446,2.02233 -5.86395,0.0475 z m 7.2082,-6.34592 c -0.26308,-0.26308 -1.25511,0.33267 -2.20452,1.3239 -1.64929,1.72194 -1.62798,1.74325 0.47833,0.47833 1.21249,-0.72815 1.98927,-1.53915 1.72619,-1.80223 z m -3.93071,-0.0973 c -0.34236,-0.55394 0.38962,-1 1.64098,-1 1.71107,0 1.97823,-0.28079 1.1014,-1.15762 -0.87682,-0.87682 -1.52907,-0.84934 -2.68899,0.11331 -1.34934,1.11985 -1.30848,3.04431 0.0646,3.04431 0.275,0 0.22189,-0.45 -0.11803,-1 z m -29.46963,5 c -1.4e-4,-1.375 0.62306,-4.3 1.3849,-6.5 1.18039,-3.40868 1.85722,-4.04735 4.57848,-4.32033 3.98929,-0.40019 7.00625,2.13763 7.00625,5.89353 0,5.38982 -0.74924,6.02895 -6.21731,5.30359 -3.73596,-0.4956 -5.20994,-0.31212 -5.8703,0.73073 -0.64523,1.01894 -0.88183,0.72185 -0.88202,-1.10752 z m 9.31897,-5.53203 c -0.79323,-2.06711 -1.34934,-1.82352 -1.34934,0.59105 0,1.13246 0.43035,1.79305 0.95633,1.46797 0.52598,-0.32507 0.70283,-1.25163 0.39301,-2.05902 z m -53.682677,2.86536 c -0.36666,-0.36666 -0.61347,-2.95416 -0.54845,-5.75 l 0.11822,-5.08333 1.00537,4.83431 c 0.88002,4.23161 1.27047,4.76767 3.13178,4.29974 2.07246,-0.52101 2.07716,-0.49778 0.18529,0.91569 -2.15935,1.6133 -2.91115,1.76465 -3.89221,0.78359 z m 48.606097,-15.3983 c -0.28146,-1.0763 -1.58297,-2.22577 -2.89225,-2.55438 -3.02173,-0.7584 -3.15559,-4.12558 -0.30793,-7.74579 2.53576,-3.2237 7.0499,-3.51238 9.92742,-0.63486 2.57507,2.57507 2.72066,9.08037 0.25,11.17048 -2.62697,2.22233 -6.36752,2.09611 -6.97724,-0.23545 z m 23.13817,-0.43062 c -1.79576,-2.74068 -1.30716,-8.54469 0.86553,-10.28154 3.93656,-3.14688 10.96137,-0.64379 12.86195,4.58299 0.72787,2.00171 0.39434,2.49142 -2.52869,3.71274 -1.85193,0.77379 -3.6326,2.09865 -3.95705,2.94414 -0.9425,2.45611 -5.39016,1.86753 -7.24174,-0.95833 z m 8.58907,-6.5313 c 0,-1.30999 -3.89456,-1.80523 -4.87472,-0.61988 -0.6732,0.81414 -0.10375,1.17766 1.96324,1.25325 1.60131,0.0586 2.91148,-0.22645 2.91148,-0.63337 z m -81.984687,-2.72311 c 0.0203,-2.32205 1.58307,-4.70885 2.31145,-3.5303 0.77188,1.24892 -0.33011,5.2803 -1.44339,5.2803 -0.48586,0 -0.87648,-0.7875 -0.86806,-1.75 z m 31.984687,-4.69098 c 0,-1.95746 0.45715,-3.55902 1.01588,-3.55902 1.16109,0 0.95262,5.90143 -0.23438,6.63504 -0.42983,0.26565 -0.7815,-1.11856 -0.7815,-3.07602 z m -30.999997,-4 c 0,-1.89255 0.45643,-3.72308 1.01429,-4.06785 0.55786,-0.34478 1.93925,-2.43994 3.06976,-4.65593 3.08481,-6.046719 3.51036,-3.813359 0.51857,2.72156 -1.43144,3.12669 -2.60262,6.53051 -2.60262,7.56404 0,1.03354 -0.45,1.87916 -1,1.87916 -0.55,0 -1,-1.54844 -1,-3.44098 z m 6.4427,1.02274 c -1.06676,-0.78003 -1.67501,-1.68279 -1.35167,-2.00613 0.32334,-0.32334 1.40488,0.31487 2.40342,1.41824 2.12443,2.34747 1.68814,2.59135 -1.05175,0.58789 z M 209.07769,98.45717 c -1.67549,-3.67729 -1.35583,-4.46179 0.45586,-1.11876 0.84602,1.56112 1.3511,3.02552 1.1224,3.25422 -0.2287,0.2287 -0.93892,-0.73225 -1.57826,-2.13546 z M 153.98562,95.13148 C 152.72621,92.77825 153.49572,92 157.08192,92 c 2.35555,0 2.83333,0.42157 2.83333,2.5 0,1.99048 -0.50235,2.5 -2.46482,2.5 -1.38354,0 -2.90349,-0.81969 -3.46481,-1.86852 z M 129.91525,94 c -2.11781,-2.117809 -2.52554,-4.622399 -1.11486,-6.848389 1.28142,-2.02205 4.56935,-0.95019 4.93441,1.6086 0.22619,1.58537 0.99842,2.23979 2.64301,2.23979 1.27791,0 2.56144,0.62016 2.85231,1.378139 1.41717,3.69309 -5.95929,4.97744 -9.31487,1.62186 z m 27.79166,-4.125019 c -0.73903,-2.2171 0.34093,-5.71188 1.95669,-6.33191 0.84749,-0.32521 2.37581,0.1643 3.39627,1.08781 2.10383,1.90394 2.49277,5.36216 0.60538,5.38277 -0.6875,0.007 -2.21191,0.27177 -3.38759,0.58724 -1.29771,0.34821 -2.30778,0.063 -2.57075,-0.72591 z m 45.70834,-1.87498 c -0.90611,-1.75222 -1.42247,-3.41086 -1.14747,-3.68586 0.275,-0.275 1.24136,0.93364 2.14747,2.68586 0.90611,1.75222 1.42247,3.41086 1.14747,3.68586 -0.275,0.275 -1.24136,-0.93364 -2.14747,-2.68586 z m -34.31184,0.26148 c 0.50201,-2.60673 3.81184,-2.89745 3.81184,-0.33481 0,1.4311 -0.64223,2.07333 -2.07332,2.07333 -1.4311,0 -1.96962,-0.53852 -1.73852,-1.73852 z m -77.188157,-4.96269 c 0,-3.428921 13.618397,-17.07247 17.894667,-17.927726 2.59527,-0.519053 2.61077,-0.577885 2.24921,-8.539515 C 111.66707,48.198218 113.77242,41 116.68957,41 c 1.19272,0 1.23574,0.282948 0.22772,1.497541 -0.82561,0.994796 -1.18915,4.674379 -1.0829,10.960459 0.13452,7.95865 -0.12453,9.717536 -1.6296,11.064651 C 111.69496,66.769086 105.0006,71 103.95601,71 c -0.47873,0 -2.4454,2.145555 -4.370377,4.7679 -3.96283,5.398451 -7.67038,9.038581 -7.67038,7.530891 z M 114.64372,51.25 c -0.21575,-2.0625 -0.39226,-0.375 -0.39226,3.75 0,4.125 0.17651,5.8125 0.39226,3.75 0.21574,-2.0625 0.21574,-5.4375 0,-7.5 z m 2.45864,29.810571 c -1.10612,-2.498886 -1.06049,-3.404741 0.30443,-6.044219 0.88306,-1.707638 2.93547,-3.913563 4.56091,-4.902055 2.9374,-1.786338 2.94318,-1.808278 0.95145,-3.610765 -1.10214,-0.997429 -2.0039,-2.643763 -2.0039,-3.65852 0,-1.485847 0.77867,-1.845012 4,-1.845012 2.2,0 4,0.439087 4,0.975749 0,0.536662 1.575,2.408967 3.5,4.160678 3.81316,3.469899 4.28858,5.217851 2.03274,7.473692 -0.92699,0.926986 -1.262,2.493569 -0.90982,4.254473 0.77572,3.878629 -2.84505,6.135409 -9.84363,6.135409 -4.89297,0 -5.38896,-0.22116 -6.59218,-2.93943 z m 9.81289,-0.717928 c -6.93623,-2.309589 -7.25398,-2.353598 -5.9891,-0.829508 0.67869,0.817776 2.64139,1.451336 4.36154,1.407916 1.72016,-0.0434 2.45256,-0.3037 1.62756,-0.578408 z m 1,-7.342643 c 0,-0.55 -0.675,-1 -1.5,-1 -0.825,0 -1.5,0.45 -1.5,1 0,0.55 0.675,1 1.5,1 0.825,0 1.5,-0.45 1.5,-1 z m 0,-6.377555 c 0,-0.207656 -0.7875,-0.995156 -1.75,-1.75 -1.58606,-1.243871 -1.62143,-1.208501 -0.37756,0.377555 1.30637,1.665748 2.12756,2.195479 2.12756,1.372445 z m 37.4687,16.315446 c -9.01921,-2.623472 -9.5795,-9.296117 -1.44323,-17.187891 3.26226,-3.164234 5.75516,-4.75 7.46723,-4.75 3.62852,0 4.40519,2.805628 1.41339,5.105723 -3.70988,2.85216 -5.94425,2.304529 -2.60033,-0.637324 1.54317,-1.35762 2.21817,-2.459144 1.5,-2.447832 -0.71817,0.01131 -3.55576,2.07081 -6.30576,4.576662 -2.75,2.505851 -3.88737,3.846596 -2.52749,2.979432 C 164.24763,69.709498 166.98169,69 168.96344,69 c 7.2713,0 10.81085,8.605917 5.31695,12.927421 -2.83289,2.22835 -4.18249,2.38164 -8.89644,1.01047 z m 4.96492,-10.040108 c -3.13161,-1.226349 -3.9576,-1.001412 -1.88578,0.513541 1.06156,0.776229 2.3552,1.148603 2.87476,0.827498 0.51955,-0.321105 0.0745,-0.924573 -0.98898,-1.341039 z m 20.3867,9.507098 c -5.59271,-2.375124 -7.45115,-10.435113 -2.75012,-11.927161 2.58881,-0.821656 5.03841,0.720276 9.0873,5.72012 4.54825,5.616491 4.99336,6.443781 3.54851,6.595291 -0.6633,0.0696 -2.33101,0.36226 -3.70601,0.65046 -1.375,0.28819 -4.15586,-0.17922 -6.17968,-1.03871 z m 5.04759,-3.064046 c -0.75181,-0.905875 -1.5314,-1.077348 -2.1384,-0.470349 -1.3346,1.334604 0.0192,3.163165 1.82804,2.469055 1.17234,-0.44987 1.23908,-0.879659 0.31036,-1.998706 z m -4.65124,-4.524168 c -1.52752,-1.527513 -2.65464,-0.400386 -1.80743,1.807422 0.50024,1.303582 0.93392,1.432752 1.82354,0.543128 0.88963,-0.889623 0.88579,-1.448644 -0.0161,-2.35055 z m -54.7027,5.931214 c -2.61192,-1.461706 -1.78975,-5.41532 1.63296,-7.852506 2.87964,-2.050482 3.36804,-2.117131 5.75,-0.784676 2.84137,1.589442 3.90266,5.220932 2.14479,7.339028 -1.3554,1.633164 -7.44622,2.463034 -9.52775,1.298154 z m 7.48603,-3.581214 c 0,-1.302074 -1.18877,-2.168033 -2.15579,-1.570382 C 140.72524,76.235467 141.61701,78 142.97427,78 c 0.51754,0 0.94098,-0.375 0.94098,-0.833333 z m 39.03212,-8.627965 c -0.94637,-1.140303 -0.9494,-2.259326 -0.0138,-5.094246 0.78025,-2.364192 0.96291,-6.152163 0.52302,-10.84645 -0.37178,-3.967426 -0.37416,-8.415956 -0.005,-9.885623 0.56424,-2.248119 0.96997,-2.511936 2.55696,-1.662608 3.17466,1.699031 5.18305,6.714111 4.33375,10.821707 -0.41263,1.995685 -0.82119,5.878518 -0.90791,8.628518 -0.2498,7.921517 -3.37241,11.791227 -6.48673,8.038702 z M 186.57753,55.75 c -0.27741,-0.6875 -0.50439,-0.125 -0.50439,1.25 0,1.375 0.22698,1.9375 0.50439,1.25 0.27741,-0.6875 0.27741,-1.8125 0,-2.5 z m 0.33299,-8.462324 c -1.08961,-1.699289 -1.11783,-1.697108 -0.57078,0.04411 0.31653,1.007484 0.61104,2.357484 0.65446,3 0.057,0.84316 0.21579,0.830886 0.57077,-0.04411 0.27051,-0.666778 -0.024,-2.016778 -0.65445,-3 z m -44.49527,10.614913 c -1.65,-0.426308 -5.09508,-1.300396 -7.65574,-1.942417 C 126.82364,53.970449 124.1525,51.764897 123.37155,46.557175 122.82113,42.886724 122.29728,42 120.67926,42 c -1.60652,0 -1.77666,-0.279828 -0.84944,-1.397067 0.63771,-0.768388 1.53795,-4.772013 2.00054,-8.896946 0.97571,-8.700331 3.68985,-14.250175 9.09223,-18.591645 C 136.33444,8.765263 141.38472,7 148.41525,7 c 7.20279,0 11.16551,1.423359 17.54367,6.301464 5.2999,4.053434 10.44953,13.503926 11.45568,21.023204 0.57761,4.316624 0.42816,4.881527 -1.4192,5.364623 -1.40603,0.367685 -2.40204,1.859333 -3.12184,4.675332 -0.58138,2.274457 -1.23222,4.662726 -1.44632,5.307264 -0.91501,2.754604 -9.40679,6.413439 -16.81248,7.243954 -4.12312,0.462388 -7.87974,1.047964 -8.34804,1.30128 -0.46831,0.253316 -2.20147,0.111777 -3.85147,-0.314532 z m 3.80943,-3.59383 c 0.60997,-0.376982 3.03989,-0.566685 5.39981,-0.421562 2.35992,0.145123 4.29076,0.07373 4.29076,-0.158659 0,-0.941444 -3.64381,-4.490785 -5.76325,-5.613836 -1.57285,-0.83342 -2.79305,-0.890582 -4,-0.187386 -1.64549,0.958696 -1.64479,1.013465 0.0132,1.042275 0.96255,0.01672 1.75005,0.480409 1.75005,1.030409 0,0.55 -1.65,1 -3.66667,1 -2.01666,0 -3.37057,0.296096 -3.00867,0.657991 0.36189,0.361895 0.23655,1.165787 -0.27853,1.786428 -1.06928,1.288407 3.39178,2.021004 5.2633,0.86434 z m -5.76309,-8.480274 c 1.08569,-1.107733 1.41172,-2.456886 0.96661,-4 -1.68032,-5.825406 -1.68039,-5.829968 -0.0783,-5.215204 0.86092,0.330383 1.56535,0.134695 1.56535,-0.434864 0,-1.49193 2.90409,-4.178417 4.51686,-4.178417 0.75571,0 1.9911,1.2375 2.74533,2.75 0.75422,1.5125 1.90378,2.6375 2.55456,2.5 0.65079,-0.1375 1.24988,0.7625 1.33131,2 0.0814,1.2375 0.20111,2.925 0.26595,3.75 0.24603,3.130433 3.66183,8 5.61167,8 2.70896,0 2.47778,-1.14347 -0.88195,-4.362297 -2.55439,-2.447262 -2.92453,-3.624586 -3.50217,-11.139463 -0.61851,-8.046584 -0.53978,-8.50911 1.85627,-10.905157 2.8623,-2.862305 2.99801,-3.532728 1.21003,-5.977933 -1.53105,-2.093829 -11.02969,-3.243854 -18.07115,-2.187922 -4.17912,0.626699 -4.65842,0.991877 -5.55268,4.230599 -0.5383,1.949581 -1.78993,4.159815 -2.78138,4.91163 -1.70504,1.29292 -1.68745,1.368658 0.32491,1.39874 1.17015,0.01749 2.68775,-0.643197 3.37244,-1.468197 2.05171,-2.472155 5,-1.882497 5,1 0,1.375 -0.5625,2.535526 -1.25,2.578947 -1,0.06316 -1,0.179825 0,0.583334 1.75651,0.708769 1.55396,3.944188 -0.43718,6.98305 -1.6574,2.52951 -1.70096,2.537715 -2.46778,0.464817 -0.42932,-1.160582 -1.35759,-2.074622 -2.06282,-2.031201 -1.00373,0.0618 -1.01073,0.188496 -0.0322,0.583334 0.6875,0.277412 1.25,1.399029 1.25,2.492481 0,1.807359 -0.14286,1.845238 -1.57143,0.416667 -2.09412,-2.094119 -2.15156,-2.044136 -1.64188,1.428571 0.32907,2.242112 0.0452,3 -1.1235,3 -0.8601,0 -1.97733,-0.738915 -2.48274,-1.642033 C 127.90006,39.221473 128.76356,36 130.53188,36 c 1.84091,0 1.77044,-1.637488 -0.10138,-2.355773 -3.3848,-1.298871 -4.74383,7.467375 -1.90317,12.276219 2.07214,3.507855 7.37066,5.327318 9.09196,3.122095 0.66222,-0.848398 1.94125,-2.294723 2.8423,-3.214056 z m 12.78699,-12.284496 c 0,-0.800807 0.38234,-1.219712 0.84965,-0.930902 0.4673,0.28881 0.59075,0.944015 0.27431,1.456011 -0.80862,1.308382 -1.12396,1.161058 -1.12396,-0.525109 z m -8.72634,-5.125776 C 143.41925,25.54388 143.87957,25 147.41525,25 c 3.63186,0 4.56247,1.537528 2.3,3.8 -1.69411,1.69411 -4.47487,1.489671 -5.19301,-0.381787 z m 24.27801,12.776023 -0.115,-3.694236 -0.71359,3.663923 c -0.39247,2.015158 -1.49432,4.940158 -2.44854,6.5 L 163.78818,50.5 l 2.56353,-2.805764 c 1.85639,-2.0318 2.53182,-3.824811 2.44854,-6.5 z m -4.885,2.864781 c 0,-1.067541 -0.45734,-2.223635 -1.01631,-2.569098 -0.55897,-0.345464 -0.78335,-1.005055 -0.49862,-1.465759 0.28473,-0.460703 -0.42097,-0.592177 -1.56822,-0.292164 -1.57766,0.412567 -1.76074,0.747228 -0.75138,1.373464 0.73399,0.455391 1.39512,1.405459 1.46918,2.111262 C 161.81776,45.769541 161.93081,46 162.91525,46 c 0.55,0 1,-0.873442 1,-1.940983 z m 10.98469,-10.27407 c 0.0168,-2.97331 -2.66981,-11.745952 -4.04016,-13.192565 -0.51159,-0.540061 -1.4204,-0.442333 -2.24416,0.241324 -0.76141,0.631918 -1.7326,0.815346 -2.15818,0.407618 -0.42559,-0.407728 0.41472,1.025779 1.86735,3.185573 1.45263,2.159793 2.92765,5.06839 3.27781,6.463548 0.59264,2.361247 0.69587,2.400877 1.49292,0.573104 0.55267,-1.267375 0.6749,-0.190804 0.34476,3.036451 -0.3539,3.459426 -0.21019,4.537828 0.46642,3.5 0.53786,-0.825 0.98482,-2.721774 0.99324,-4.215053 z m -14.67879,0.900995 c -0.30917,-0.500252 0.058,-1.343496 0.81598,-1.873876 1.13308,-0.792862 1.11141,-0.892627 -0.12188,-0.561078 -0.825,0.221787 -1.62912,1.718546 -1.78693,3.326131 -0.21236,2.163164 -0.0346,2.54541 0.68401,1.470627 0.53403,-0.79874 0.71799,-1.861552 0.40882,-2.361804 z m 7.6407,-4.042162 c -0.96285,-0.88745 -1.09592,-0.733263 -0.59378,0.688007 0.35595,1.007484 0.69938,2.357484 0.76318,3 0.0638,0.642517 0.331,0.332914 0.59378,-0.688007 0.26278,-1.020921 -0.0806,-2.370921 -0.76318,-3 z M 128.59836,29.8125 c -0.31922,-0.797733 -0.55618,-0.560776 -0.60416,0.604167 -0.0434,1.054166 0.19292,1.644791 0.52522,1.3125 0.33229,-0.332292 0.36781,-1.194792 0.0789,-1.916667 z M 162.91525,28 c 0,-0.55 -0.19844,-1 -0.44098,-1 -0.24254,0 -0.7191,0.45 -1.05902,1 -0.33992,0.55 -0.14148,1 0.44098,1 0.58246,0 1.05902,-0.45 1.05902,-1 z m -33.5,-7 c 0.33992,-0.55 -0.057,-1 -0.88197,-1 -0.825,0 -1.77811,0.45 -2.11803,1 -0.33992,0.55 0.057,1 0.88197,1 0.825,0 1.77811,-0.45 2.11803,-1 z m 13.22917,-6.604167 c -0.3323,-0.332291 -1.1948,-0.367818 -1.91667,-0.07895 -0.79773,0.319227 -0.56078,0.556183 0.60417,0.604167 1.05416,0.04342 1.64479,-0.192928 1.3125,-0.525219 z m 12,0 c -0.3323,-0.332291 -1.1948,-0.367818 -1.91667,-0.07895 -0.79773,0.319227 -0.56078,0.556183 0.60417,0.604167 1.05416,0.04342 1.64479,-0.192928 1.3125,-0.525219 z m -5.46014,-1.05177 c -0.67703,-0.273923 -2.02703,-0.290597 -3,-0.03705 -0.97297,0.253544 -0.41903,0.477662 1.23097,0.498042 1.65,0.02038 2.44606,-0.187065 1.76903,-0.460988 z m 13.26785,-0.891947 C 158.7558,9.657391 150.50037,7.660486 146.30711,8.546798 l -3.89186,0.822607 6,0.706965 c 3.3,0.38883 7.8,1.399007 10,2.244835 5.1105,1.964824 6.52302,2.01063 4.03688,0.130911 z"
     id="path4251"
     inkscape:connector-curvature="0" />
</svg>
